<svg width="24" height="24" viewBox="0 0 24 24" fill="none" xmlns="http://www.w3.org/2000/svg">
  <!-- Shield with gear - representing system administration and security -->
  <path d="M12 2L4 6V12C4 16.55 6.84 20.74 12 22C17.16 20.74 20 16.55 20 12V6L12 2Z" fill="#DC2626" stroke="#991B1B" stroke-width="1.5"/>
  <!-- Gear icon in center -->
  <path d="M12 8C9.79 8 8 9.79 8 12C8 14.21 9.79 16 12 16C14.21 16 16 14.21 16 12C16 9.79 14.21 8 12 8Z" fill="white"/>
  <path d="M12 10C10.9 10 10 10.9 10 12C10 13.1 10.9 14 12 14C13.1 14 14 13.1 14 12C14 10.9 13.1 10 12 10Z" fill="#DC2626"/>
  <!-- Gear teeth -->
  <circle cx="12" cy="8" r="1" fill="white"/>
  <circle cx="12" cy="16" r="1" fill="white"/>
  <circle cx="8" cy="12" r="1" fill="white"/>
  <circle cx="16" cy="12" r="1" fill="white"/>
</svg>
