<svg width="24" height="24" viewBox="0 0 24 24" fill="none" xmlns="http://www.w3.org/2000/svg">
  <!-- Calculator with dollar sign - representing financial management -->
  <rect x="6" y="4" width="12" height="16" rx="2" fill="#2563EB" stroke="#1D4ED8" stroke-width="1.5"/>
  <!-- Screen -->
  <rect x="7" y="5" width="10" height="4" rx="1" fill="#1E40AF"/>
  <!-- Dollar sign on screen -->
  <path d="M12 6.5V8.5M12 6.5C11.5 6.5 11 7 11 7.5C11 8 11.5 8.5 12 8.5M12 6.5C12.5 6.5 13 7 13 7.5C13 8 12.5 8.5 12 8.5" stroke="white" stroke-width="0.8" stroke-linecap="round"/>
  <!-- Calculator buttons -->
  <circle cx="8" cy="11" r="0.8" fill="#3B82F6"/>
  <circle cx="10" cy="11" r="0.8" fill="#3B82F6"/>
  <circle cx="12" cy="11" r="0.8" fill="#3B82F6"/>
  <circle cx="14" cy="11" r="0.8" fill="#3B82F6"/>
  <circle cx="16" cy="11" r="0.8" fill="#3B82F6"/>
  <circle cx="8" cy="13" r="0.8" fill="#3B82F6"/>
  <circle cx="10" cy="13" r="0.8" fill="#3B82F6"/>
  <circle cx="12" cy="13" r="0.8" fill="#3B82F6"/>
  <circle cx="14" cy="13" r="0.8" fill="#3B82F6"/>
  <circle cx="16" cy="13" r="0.8" fill="#3B82F6"/>
  <circle cx="8" cy="15" r="0.8" fill="#3B82F6"/>
  <circle cx="10" cy="15" r="0.8" fill="#3B82F6"/>
  <circle cx="12" cy="15" r="0.8" fill="#3B82F6"/>
  <circle cx="14" cy="15" r="0.8" fill="#3B82F6"/>
  <circle cx="16" cy="15" r="0.8" fill="#3B82F6"/>
  <circle cx="8" cy="17" r="0.8" fill="#3B82F6"/>
  <circle cx="10" cy="17" r="0.8" fill="#3B82F6"/>
  <circle cx="12" cy="17" r="0.8" fill="#3B82F6"/>
  <circle cx="14" cy="17" r="0.8" fill="#3B82F6"/>
  <circle cx="16" cy="17" r="0.8" fill="#3B82F6"/>
</svg>
