<svg width="24" height="24" viewBox="0 0 24 24" fill="none" xmlns="http://www.w3.org/2000/svg">
  <!-- Voting ballot box with checkmark - representing voting and decision-making -->
  <rect x="6" y="4" width="12" height="16" rx="2" fill="#2563EB" stroke="#1D4ED8" stroke-width="1.5"/>
  <!-- Ballot slot -->
  <rect x="8" y="2" width="8" height="2" rx="1" fill="#1E40AF"/>
  <!-- Checkmark representing vote -->
  <path d="M9 12L11 14L15 10" stroke="white" stroke-width="2" stroke-linecap="round" stroke-linejoin="round"/>
  <!-- Ballot lines -->
  <rect x="8" y="16" width="8" height="1" rx="0.5" fill="#3B82F6"/>
  <rect x="8" y="18" width="6" height="1" rx="0.5" fill="#3B82F6"/>
  <!-- Voting hand/gesture -->
  <path d="M18 8C18 8 17.5 7.5 17 8C16.5 8.5 17 9 17.5 8.5C18 8 18.5 8.5 18 9C17.5 9.5 18 10 18.5 9.5C19 9 19.5 9.5 19 10C18.5 10.5 19 11 19.5 10.5C20 10 20.5 10.5 20 11" stroke="#3B82F6" stroke-width="1.5" stroke-linecap="round"/>
</svg>
