<svg width="24" height="24" viewBox="0 0 24 24" fill="none" xmlns="http://www.w3.org/2000/svg">
  <!-- Clipboard with document - representing documentation and record keeping -->
  <path d="M8 3H16C17.1 3 18 3.9 18 5V19C18 20.1 17.1 21 16 21H8C6.9 21 6 20.1 6 19V5C6 3.9 6.9 3 8 3Z" fill="#2563EB" stroke="#1D4ED8" stroke-width="1.5"/>
  <!-- Clipboard top -->
  <path d="M8 3C8 2.4 8.4 2 9 2H15C15.6 2 16 2.4 16 3V5H8V3Z" fill="#1E40AF"/>
  <!-- Document lines -->
  <rect x="9" y="8" width="6" height="1" rx="0.5" fill="white"/>
  <rect x="9" y="10" width="4" height="1" rx="0.5" fill="white"/>
  <rect x="9" y="12" width="5" height="1" rx="0.5" fill="white"/>
  <rect x="9" y="14" width="3" height="1" rx="0.5" fill="white"/>
  <rect x="9" y="16" width="6" height="1" rx="0.5" fill="white"/>
  <!-- Pen/pencil -->
  <path d="M16 6L18 8L17 9L15 7L16 6Z" fill="#3B82F6"/>
  <path d="M15 7L17 9L16 10L14 8L15 7Z" fill="#60A5FA"/>
</svg>
